# xmcd
#
# Track frame offsets:
#	150
#	22172
#	34207
#	56197
#	68930
#	90550
#	113780
#	132887
#	146830
#	166725
#	178355
#	198950
#	213334
#	241132
#	254707
#
# Disc length: 3626 seconds
# Revision: 4
# Processed by: cddbd v1.5.2PL0 Copyright (c) Steve Scherf et al.
# Submitted via: dBpowerAMP V12.0
#
DISCID=e40e280f
DTITLE=William Clarke - Groove Time
DYEAR=1994
DGENRE=Blues
TTITLE0=Daddy Pinnochio
TTITLE1=Saturday Night Blues
TTITLE2=The Complainers Boogie Woogie
TTITLE3=This is my Last Goodbye
TTITLE4=Telephone is Ringing
TTITLE5=A Good Girl is Hard to Find
TTITLE6=The War is Over
TTITLE7=Broke And Hungry
TTITLE8=Somebody is Calling me Home
TTITLE9=Blowin' The Family Jewels
TTITLE10=Watch Dog
TTITLE11=Saint or Sinner
TTITLE12=Chicago Blues
TTITLE13=Bedroom Boogie
TTITLE14=Your Love is Real
EXTD=
EXTT0=
EXTT1=
EXTT2=
EXTT3=
EXTT4=
EXTT5=
EXTT6=
EXTT7=
EXTT8=
EXTT9=
EXTT10=
EXTT11=
EXTT12=
EXTT13=
EXTT14=
PLAYORDER=
